<?xml version="1.0" encoding="utf-8"?>
<!-- Generator: Adobe Illustrator 16.0.0, SVG Export Plug-In . SVG Version: 6.00 Build 0)  -->
<!DOCTYPE svg PUBLIC "-//W3C//DTD SVG 1.1//EN" "http://www.w3.org/Graphics/SVG/1.1/DTD/svg11.dtd">
<svg version="1.1" id="Layer_1" xmlns="http://www.w3.org/2000/svg" xmlns:xlink="http://www.w3.org/1999/xlink" x="0px" y="0px"
	 width="72.827px" height="50px" viewBox="-9.414 0 72.827 50" enable-background="new -9.414 0 72.827 50" xml:space="preserve">
<g>
	<path fill="#FFFFFF" d="M18.698,40.943l-0.012,2.905l0.212,0.036c0.667,0.124,1.341,0.211,2.017,0.259
		c0.592,0.055,1.188,0.066,1.782,0.035c0.567-0.041,1.128-0.146,1.672-0.315c0.638-0.181,1.229-0.496,1.735-0.925
		c0.455-0.389,0.803-0.888,1.01-1.448c0.361-0.939,0.354-1.981-0.02-2.917c-0.198-0.484-0.508-0.914-0.906-1.254
		c-0.385-0.348-0.838-0.611-1.329-0.774l-2.19-0.812c-0.262-0.11-0.475-0.313-0.599-0.569c-0.097-0.214-0.088-0.46,0.024-0.666
		c0.039-0.071,0.088-0.139,0.146-0.196c0.066-0.067,0.143-0.128,0.224-0.177c0.032-0.021,0.065-0.039,0.1-0.057
		c0.245-0.121,0.509-0.198,0.78-0.228c0.464-0.066,0.936-0.062,1.397,0.015c0.546,0.059,1.088,0.156,1.62,0.29l0.113,0.025v-2.681
		l-0.209-0.045c-0.543-0.13-1.094-0.228-1.648-0.293c-0.719-0.096-1.446-0.099-2.166-0.01c-0.912,0.084-1.779,0.434-2.494,1.004
		c-0.485,0.381-0.854,0.889-1.065,1.469c-0.318,0.883-0.319,1.848-0.003,2.73c0.164,0.439,0.426,0.834,0.767,1.156
		c0.295,0.284,0.628,0.525,0.991,0.718c0.478,0.257,0.983,0.456,1.508,0.592c0.172,0.052,0.345,0.106,0.516,0.165l0.26,0.095
		c0.024,0.01,0.049,0.021,0.074,0.03c0.256,0.092,0.49,0.235,0.686,0.423c0.137,0.128,0.242,0.286,0.309,0.46
		c0.039,0.16,0.04,0.328,0.001,0.488c-0.082,0.258-0.263,0.475-0.502,0.602c-0.261,0.135-0.543,0.225-0.835,0.262
		c-0.428,0.068-0.862,0.09-1.295,0.064c-0.568-0.043-1.132-0.117-1.69-0.225c-0.292-0.061-0.583-0.128-0.87-0.205L18.698,40.943"/>
	<path fill="#FFFFFF" d="M6.788,43.743V40.37l-0.067,0.029c-0.76,0.367-1.587,0.577-2.431,0.616
		c-0.877,0.069-1.748-0.188-2.447-0.722c-0.5-0.385-0.871-0.912-1.066-1.512c-0.215-0.654-0.239-1.355-0.071-2.023
		c0.155-0.684,0.538-1.293,1.085-1.73c0.484-0.406,1.077-0.662,1.705-0.736c1.109-0.122,2.229,0.088,3.22,0.604l0.073,0.038v-3.393
		l-0.154-0.041c-0.991-0.318-2.03-0.454-3.069-0.401c-0.946,0.024-1.878,0.237-2.741,0.627c-0.871,0.399-1.639,0.991-2.244,1.733
		c-1.894,2.396-1.944,5.764-0.124,8.215c0.896,1.146,2.154,1.955,3.568,2.294c1.491,0.363,3.054,0.308,4.516-0.157L6.788,43.743"/>
	<polyline fill="#FFFFFF" points="14.374,43.966 14.374,31.314 11.184,31.314 11.184,43.966 14.374,43.966 	"/>
	<polyline fill="#FFFFFF" points="61.586,42.496 61.586,42.306 60.234,42.306 60.234,42.496 60.797,42.496 60.797,43.966 
		61.023,43.966 61.023,42.496 61.586,42.496 	"/>
	<polyline fill="#FFFFFF" points="61.717,43.966 61.932,43.966 61.932,42.64 61.961,42.64 62.445,43.966 62.662,43.966 
		63.186,42.575 63.186,43.966 63.412,43.966 63.412,42.306 63.062,42.306 62.57,43.673 62.072,42.306 61.717,42.306 61.717,43.966 	
		"/>
	<path fill="#FFFFFF" d="M-9.414,21.147c0.03,0.398,0.208,0.771,0.501,1.042s0.677,0.422,1.076,0.422
		c0.399,0,0.784-0.151,1.076-0.422c0.293-0.271,0.472-0.644,0.502-1.042v-3.506c-0.017-0.408-0.189-0.793-0.484-1.076
		c-0.294-0.283-0.686-0.441-1.094-0.441c-0.408,0-0.8,0.158-1.094,0.441c-0.294,0.283-0.468,0.667-0.484,1.076V21.147"/>
	<path fill="#FFFFFF" d="M-0.681,21.147c0.03,0.398,0.209,0.771,0.501,1.042c0.293,0.271,0.677,0.422,1.076,0.422
		s0.784-0.151,1.076-0.422s0.472-0.644,0.501-1.042v-7.86c-0.016-0.407-0.189-0.793-0.483-1.076
		c-0.294-0.283-0.686-0.441-1.094-0.441s-0.8,0.158-1.094,0.441c-0.294,0.282-0.468,0.668-0.484,1.076V21.147"/>
	<path fill="#FFFFFF" d="M8.005,24.314c0.029,0.398,0.208,0.77,0.501,1.041c0.292,0.272,0.677,0.423,1.077,0.423
		c0.399,0,0.783-0.151,1.076-0.423c0.292-0.271,0.472-0.643,0.501-1.041V7.311c-0.016-0.408-0.189-0.793-0.483-1.076
		c-0.294-0.283-0.686-0.44-1.094-0.44c-0.408,0-0.8,0.158-1.094,0.44C8.194,6.518,8.021,6.903,8.005,7.311V24.314"/>
	<path fill="#FFFFFF" d="M16.737,21.147c0.03,0.398,0.208,0.771,0.501,1.042c0.292,0.271,0.677,0.422,1.076,0.422
		c0.399,0,0.784-0.151,1.077-0.422c0.291-0.271,0.471-0.644,0.501-1.042v-7.86c-0.017-0.407-0.189-0.793-0.483-1.076
		c-0.295-0.283-0.687-0.441-1.095-0.441c-0.408,0-0.8,0.158-1.094,0.441c-0.294,0.282-0.467,0.668-0.483,1.076V21.147"/>
	<path fill="#FFFFFF" d="M25.43,21.147c0.029,0.398,0.208,0.771,0.501,1.042c0.292,0.271,0.677,0.422,1.075,0.422
		c0.4,0,0.785-0.151,1.078-0.422c0.291-0.271,0.471-0.644,0.5-1.042v-3.506c-0.016-0.408-0.189-0.793-0.482-1.076
		c-0.295-0.283-0.687-0.441-1.095-0.441c-0.407,0-0.799,0.158-1.094,0.441c-0.294,0.283-0.467,0.667-0.482,1.076V21.147"/>
	<path fill="#FFFFFF" d="M34.154,21.147c0.029,0.398,0.209,0.771,0.502,1.042c0.291,0.271,0.676,0.422,1.076,0.422
		c0.398,0,0.783-0.151,1.076-0.422c0.291-0.271,0.471-0.644,0.5-1.042v-7.86c-0.016-0.407-0.189-0.793-0.482-1.076
		c-0.295-0.283-0.688-0.441-1.094-0.441c-0.408,0-0.801,0.158-1.096,0.441c-0.293,0.282-0.467,0.668-0.482,1.076V21.147"/>
	<path fill="#FFFFFF" d="M42.844,24.314c0.029,0.398,0.209,0.77,0.5,1.041c0.293,0.272,0.678,0.423,1.076,0.423
		c0.4,0,0.785-0.151,1.076-0.423c0.293-0.271,0.473-0.643,0.502-1.041V7.311c-0.016-0.408-0.189-0.793-0.482-1.076
		c-0.295-0.283-0.688-0.44-1.096-0.44s-0.799,0.158-1.094,0.44c-0.293,0.283-0.467,0.668-0.482,1.076V24.314"/>
	<path fill="#FFFFFF" d="M51.561,21.147c0.029,0.398,0.209,0.771,0.502,1.042s0.676,0.422,1.076,0.422
		c0.398,0,0.783-0.151,1.076-0.422s0.471-0.644,0.5-1.042v-7.86c-0.016-0.407-0.188-0.793-0.482-1.076
		c-0.295-0.283-0.686-0.441-1.094-0.441s-0.801,0.158-1.094,0.441c-0.295,0.282-0.467,0.668-0.484,1.076V21.147"/>
	<path fill="#FFFFFF" d="M60.258,21.147c0.029,0.398,0.209,0.771,0.502,1.042c0.291,0.271,0.676,0.422,1.074,0.422
		c0.4,0,0.785-0.151,1.078-0.422c0.291-0.271,0.471-0.644,0.5-1.042v-3.506c-0.016-0.408-0.189-0.793-0.482-1.076
		c-0.295-0.283-0.688-0.441-1.096-0.441c-0.406,0-0.799,0.158-1.092,0.441c-0.295,0.283-0.469,0.667-0.484,1.076V21.147"/>
	<path fill="#FFFFFF" d="M40.117,43.743V40.37l-0.066,0.029c-0.76,0.367-1.588,0.577-2.432,0.616
		c-0.875,0.069-1.748-0.188-2.447-0.722c-0.498-0.385-0.869-0.912-1.064-1.512c-0.215-0.654-0.24-1.355-0.072-2.023
		c0.156-0.684,0.539-1.293,1.086-1.73c0.484-0.406,1.076-0.662,1.705-0.736c1.109-0.122,2.229,0.088,3.219,0.604l0.072,0.038v-3.393
		l-0.154-0.041c-0.99-0.318-2.029-0.454-3.068-0.401c-0.947,0.024-1.879,0.237-2.742,0.626c-0.871,0.4-1.639,0.993-2.244,1.734
		c-1.893,2.396-1.943,5.764-0.123,8.215c0.896,1.146,2.154,1.955,3.568,2.294c1.492,0.363,3.055,0.308,4.516-0.157L40.117,43.743"/>
	<path fill="#FFFFFF" d="M43.479,37.646c0.031,2,0.959,3.88,2.529,5.119c1.568,1.24,3.611,1.709,5.564,1.277
		c2.652-0.5,4.719-2.587,5.191-5.243s-0.746-5.328-3.062-6.712c-2.045-1.266-4.613-1.338-6.727-0.188
		C44.863,33.048,43.527,35.241,43.479,37.646 M48.109,35.05c0.689-0.55,1.568-0.804,2.445-0.705c0.877,0.098,1.68,0.54,2.23,1.229
		s0.803,1.569,0.705,2.446s-0.541,1.678-1.23,2.229c-0.688,0.551-1.568,0.805-2.445,0.707s-1.678-0.541-2.229-1.23
		s-0.805-1.569-0.707-2.445C46.977,36.403,47.42,35.601,48.109,35.05"/>
</g>
</svg>
