<?xml version="1.0" encoding="utf-8"?>
<!-- Generator: Adobe Illustrator 16.0.0, SVG Export Plug-In . SVG Version: 6.00 Build 0)  -->
<!DOCTYPE svg PUBLIC "-//W3C//DTD SVG 1.1//EN" "http://www.w3.org/Graphics/SVG/1.1/DTD/svg11.dtd">
<svg version="1.1" id="Layer_1" xmlns="http://www.w3.org/2000/svg" xmlns:xlink="http://www.w3.org/1999/xlink" x="0px" y="0px"
	 width="180px" height="50px" viewBox="0 0 180 50" enable-background="new 0 0 180 50" xml:space="preserve">
<g id="Logo_V.3._5_">
	<g>
		<g>
			<g id="Logo_8_">
				<polygon fill="#FDFEFF" points="21.001,50 19.777,49.387 44.414,0 45.634,0.615 				"/>
			</g>
		</g>
		<g>
			<path fill="#FDFEFF" d="M13.004,1.824c-0.238-0.138-0.627-0.138-0.865,0L0.433,8.599C0.195,8.736,0,9.074,0,9.349v13.553
				c0,0.275,0.195,0.613,0.433,0.75l11.706,6.775c0.238,0.138,0.627,0.138,0.865,0l11.708-6.775c0.238-0.138,0.433-0.476,0.433-0.75
				V9.349c0-0.275-0.195-0.613-0.433-0.75L13.004,1.824z M20.49,20.184c0,0.275-0.195,0.612-0.434,0.749l-3.092,1.775
				c-0.238,0.137-0.434,0.024-0.434-0.251l0.001-8.145c0-0.275-0.195-0.387-0.433-0.25l-3.078,1.78
				c-0.238,0.137-0.629,0.14-0.87,0.006L9.05,14.116c-0.24-0.134-0.437-0.019-0.437,0.256v8.085c0,0.275-0.195,0.388-0.434,0.251
				l-3.091-1.775c-0.238-0.137-0.434-0.474-0.434-0.749v-8.163c0-0.275,0.195-0.613,0.433-0.75l3.093-1.793
				c0.238-0.138,0.627-0.138,0.865,0l3.094,1.793c0.238,0.138,0.627,0.138,0.865,0l3.093-1.793c0.238-0.138,0.627-0.138,0.865,0
				l3.094,1.793c0.238,0.138,0.433,0.476,0.433,0.75V20.184z"/>
		</g>
		<g>
			<path fill="#FDFEFF" d="M43.264,26.879h0.068c0.908-1.401,2.271-2.183,3.961-2.183c0.647,0,1.299,0.161,1.882,0.392l-0.551,4.231
				c-0.551-0.393-1.202-0.586-1.884-0.586c-3.15,0-3.477,2.799-3.477,5.271v7.197h-4.545V25.216h4.545V26.879z"/>
			<path fill="#FDFEFF" d="M53.981,33.941c0,2.018,0.78,4.297,3.151,4.297c1.493,0,2.435-0.91,3.052-2.182l4.19,0.682
				c-1.105,3.193-3.897,4.982-7.242,4.982c-4.937,0-7.957-3.516-7.957-8.365c0-4.852,2.565-8.66,7.729-8.66
				c5.229,0,7.567,3.875,7.567,8.691v0.555H53.981z M60.185,31.107c-0.228-1.627-1.267-3.223-3.021-3.223
				c-1.818,0-2.825,1.564-3.053,3.223H60.185z"/>
			<path fill="#FDFEFF" d="M70.804,26.682c1.039-1.237,2.727-1.986,4.416-1.986c4.513,0,7.275,4.23,7.275,8.433
				c0,4.361-2.663,8.592-7.373,8.592c-1.624,0-3.345-0.717-4.254-2.02h-0.064V49.73h-4.547V25.216h4.547V26.682z M77.883,33.193
				c0-2.148-1.429-4.461-3.768-4.461c-2.338,0-3.767,2.312-3.767,4.461s1.429,4.492,3.767,4.492
				C76.454,37.686,77.883,35.342,77.883,33.193z"/>
			<path fill="#FDFEFF" d="M100.557,33.018c0,4.949-3.378,8.494-8.379,8.494c-5,0-8.378-3.545-8.378-8.494
				c0-4.982,3.41-8.53,8.378-8.53C97.146,24.488,100.557,28.035,100.557,33.018z M88.411,33.018c0,2.15,1.428,4.461,3.767,4.461
				c2.339,0,3.768-2.311,3.768-4.461c0-2.215-1.429-4.492-3.768-4.492C89.839,28.525,88.411,30.803,88.411,33.018z"/>
			<path fill="#FDFEFF" d="M110.559,28.787c-0.651-0.623-1.495-1.109-2.404-1.109c-0.748,0-1.493,0.588-1.493,1.369
				c0,1.172,1.655,1.494,3.279,2.211c1.656,0.717,3.28,1.822,3.28,4.592c0,3.547-2.859,5.662-6.202,5.662
				c-2.145,0-4.223-0.975-5.619-2.666l2.078-2.703c0.878,0.977,2.047,1.854,3.377,1.854c1.009,0,1.82-0.682,1.82-1.725
				c0-1.398-1.592-1.727-3.184-2.408c-1.592-0.686-3.184-1.627-3.184-4.201c0-2.992,2.08-5.174,5.067-5.174
				c1.688,0,3.832,0.522,5.13,1.661L110.559,28.787z"/>
			<path fill="#FDFEFF" d="M120.56,18.303c0,1.496-1.202,2.702-2.695,2.702c-1.494,0-2.696-1.206-2.696-2.702
				c0-1.464,1.202-2.703,2.696-2.703C119.357,15.6,120.56,16.839,120.56,18.303z M120.138,40.994h-4.547V25.01h4.547V40.994z"/>
			<path fill="#FDFEFF" d="M128.352,40.994h-4.546V28.85h-1.558V25.01h1.558v-5.406h4.546v5.406h2.792v3.839h-2.792V40.994z"/>
			<path fill="#FDFEFF" d="M148.729,33.018c0,4.949-3.377,8.494-8.38,8.494c-5,0-8.377-3.545-8.377-8.494
				c0-4.982,3.409-8.53,8.377-8.53C145.318,24.488,148.729,28.035,148.729,33.018z M136.583,33.018c0,2.15,1.429,4.461,3.766,4.461
				c2.34,0,3.769-2.311,3.769-4.461c0-2.215-1.429-4.492-3.769-4.492C138.012,28.525,136.583,30.803,136.583,33.018z"/>
			<path fill="#FDFEFF" d="M155.092,26.67h0.065c0.909-1.4,2.273-2.182,3.962-2.182c0.65,0,1.299,0.162,1.884,0.39l-0.552,4.234
				c-0.553-0.391-1.202-0.586-1.884-0.586c-3.15,0-3.476,2.797-3.476,5.273v7.195h-4.546V25.01h4.546V26.67z"/>
			<path fill="#FDFEFF" d="M161.878,25.01h5.164l3.799,9.082l4.092-9.082H180l-11.594,24.511h-5.001l5.261-10.971L161.878,25.01z"/>
		</g>
	</g>
</g>
</svg>
