<?xml version="1.0" encoding="utf-8"?>
<!-- Generator: Adobe Illustrator 16.0.0, SVG Export Plug-In . SVG Version: 6.00 Build 0)  -->
<!DOCTYPE svg PUBLIC "-//W3C//DTD SVG 1.1//EN" "http://www.w3.org/Graphics/SVG/1.1/DTD/svg11.dtd">
<svg version="1.1" id="Layer_1" xmlns="http://www.w3.org/2000/svg" xmlns:xlink="http://www.w3.org/1999/xlink" x="0px" y="0px"
	 width="44px" height="50px" viewBox="0 0 44 50" enable-background="new 0 0 44 50" xml:space="preserve">
<g id="Logo_3_">
	<path fill="#F4F4F4" d="M42.885,11.68L23.113,0.291c-0.677-0.389-1.546-0.389-2.229,0.002L1.116,11.682
		C0.428,12.078,0,12.816,0,13.609v22.775c0,0.793,0.428,1.533,1.116,1.93l19.771,11.388C21.225,49.897,21.61,50,22,50
		c0.39,0,0.774-0.103,1.117-0.298l19.768-11.388C43.572,37.918,44,37.178,44,36.385V13.609C44,12.816,43.572,12.078,42.885,11.68z
		 M3.225,14.182L22,3.365l18.775,10.816v21.633L22,46.63L3.225,35.814V14.182z"/>
	<g>
		<g>
			<path fill="#F4F4F4" d="M6.175,20.66h0.021c0.264-0.411,0.685-0.675,1.193-0.675c0.581,0,1.108,0.307,1.372,0.822
				c0.296-0.548,0.888-0.822,1.49-0.822c1.266,0,1.583,1.033,1.583,2.076v3.012h-0.845v-2.876c0-0.643-0.042-1.432-0.908-1.432
				c-0.971,0-1.077,0.938-1.077,1.685v2.623H8.159v-2.811c0-0.612-0.074-1.497-0.887-1.497c-0.992,0-1.098,1-1.098,1.749v2.559H5.33
				v-4.95h0.845V20.66z"/>
		</g>
		<g>
			<path fill="#F4F4F4" d="M19.087,30.732h-1.478v-3.929h-0.496v-1.245h0.496v-1.516c0-1.264,0.528-2.37,1.953-2.37
				c0.243,0,0.485,0.052,0.708,0.168v1.315c-0.19-0.094-0.38-0.179-0.603-0.179c-0.653,0-0.58,0.854-0.58,1.274v1.306h1.183v1.245
				h-1.183V30.732z"/>
			<path fill="#F4F4F4" d="M22.835,28.542l1.267-3.15h0.707l1.277,3.192l1.1-3.025h1.605l-2.408,5.279h-0.75l-1.107-3.148
				l-1.236,3.148h-0.761l-2.386-5.279h1.615L22.835,28.542z"/>
			<path fill="#F4F4F4" d="M30.711,27.456h0.021l1.551-1.897h1.922l-2.186,2.278l2.354,2.896h-1.941l-1.699-2.202h-0.021v2.202
				h-1.479v-8.933h1.479V27.456z"/>
			<path fill="#F4F4F4" d="M37.551,26.782c-0.211-0.199-0.484-0.358-0.781-0.358c-0.242,0-0.484,0.191-0.484,0.444
				c0,0.378,0.537,0.483,1.066,0.715c0.537,0.232,1.066,0.59,1.066,1.485c0,1.148-0.93,1.834-2.018,1.834
				c-0.697,0-1.373-0.316-1.826-0.864l0.674-0.875c0.287,0.316,0.666,0.602,1.1,0.602c0.326,0,0.59-0.222,0.59-0.56
				c0-0.452-0.516-0.559-1.033-0.779c-0.518-0.22-1.035-0.525-1.035-1.358c0-0.969,0.676-1.675,1.646-1.675
				c0.551,0,1.246,0.167,1.668,0.537L37.551,26.782z"/>
		</g>
	</g>
	
		<rect x="13.465" y="16.243" transform="matrix(0.8944 0.4472 -0.4472 0.8944 12.7741 -3.4484)" fill="#F4F4F4" width="0.452" height="18.178"/>
</g>
</svg>
