<?xml version="1.0" encoding="utf-8"?>
<!-- Generator: Adobe Illustrator 16.0.0, SVG Export Plug-In . SVG Version: 6.00 Build 0)  -->
<!DOCTYPE svg PUBLIC "-//W3C//DTD SVG 1.1//EN" "http://www.w3.org/Graphics/SVG/1.1/DTD/svg11.dtd">
<svg version="1.1" id="Layer_1" xmlns="http://www.w3.org/2000/svg" xmlns:xlink="http://www.w3.org/1999/xlink" x="0px" y="0px"
	 width="252.606px" height="70px" viewBox="0 0 252.606 70" enable-background="new 0 0 252.606 70" xml:space="preserve">
<g>
	<g id="Logo_V.3._14_">
		<g>
			<g id="Logo_10_">
				<polygon fill="#0DBCD4" points="29.892,70 28.174,69.139 62.749,0 64.46,0.861 				"/>
			</g>
		</g>
		<g>
			<path fill="#0DBCD4" d="M18.495,2.452c-0.238-0.138-0.628-0.138-0.866,0L0.852,12.137c-0.238,0.138-0.433,0.475-0.433,0.75
				v19.375c0,0.275,0.195,0.612,0.433,0.75l16.777,9.685c0.238,0.138,0.628,0.138,0.866,0l16.778-9.685
				c0.238-0.138,0.433-0.475,0.433-0.75V12.887c0-0.275-0.195-0.612-0.433-0.75L18.495,2.452z M29.174,28.457
				c0,0.275-0.195,0.612-0.434,0.749l-4.688,2.685c-0.239,0.137-0.434,0.023-0.434-0.251l0.001-11.802
				c0-0.275-0.195-0.388-0.433-0.25l-4.667,2.693c-0.238,0.138-0.63,0.141-0.87,0.007l-4.705-2.622
				c-0.24-0.134-0.437-0.018-0.437,0.257v11.717c0,0.275-0.195,0.388-0.434,0.251l-4.686-2.685
				c-0.239-0.137-0.434-0.474-0.434-0.749V16.628c0-0.275,0.195-0.613,0.433-0.75l4.688-2.71c0.238-0.137,0.628-0.137,0.866,0
				l4.69,2.71c0.238,0.137,0.628,0.137,0.866,0l4.689-2.71c0.238-0.137,0.628-0.137,0.866,0l4.69,2.71
				c0.238,0.137,0.433,0.475,0.433,0.75V28.457z"/>
		</g>
		<g>
			<path fill="#0DBCD4" d="M61.135,37.628h0.096c1.273-1.96,3.188-3.056,5.56-3.056c0.909,0,1.824,0.227,2.641,0.548l-0.773,5.925
				c-0.773-0.548-1.688-0.82-2.644-0.82c-4.421,0-4.879,3.92-4.879,7.383V57.68h-6.378V35.303h6.378V37.628z"/>
			<path fill="#0DBCD4" d="M76.175,47.517c0,2.826,1.095,6.017,4.423,6.017c2.094,0,3.417-1.275,4.282-3.056l5.88,0.956
				c-1.55,4.471-5.468,6.977-10.162,6.977c-6.928,0-11.167-4.926-11.167-11.713c0-6.79,3.601-12.125,10.846-12.125
				c7.337,0,10.62,5.426,10.62,12.17v0.774H76.175z M84.88,43.55c-0.321-2.277-1.777-4.512-4.239-4.512
				c-2.55,0-3.964,2.189-4.283,4.512H84.88z"/>
			<path fill="#0DBCD4" d="M99.783,37.354c1.458-1.731,3.827-2.781,6.198-2.781c6.334,0,10.21,5.925,10.21,11.807
				c0,6.105-3.738,12.031-10.347,12.031c-2.279,0-4.695-1.004-5.971-2.826h-0.09v14.037h-6.381V35.303h6.381V37.354z
				 M109.718,46.469c0-3.006-2.005-6.244-5.287-6.244c-3.281,0-5.286,3.238-5.286,6.244c0,3.008,2.005,6.29,5.286,6.29
				C107.712,52.759,109.718,49.477,109.718,46.469z"/>
			<path fill="#0DBCD4" d="M141.538,46.225c0,6.926-4.741,11.891-11.759,11.891c-7.018,0-11.759-4.965-11.759-11.891
				c0-6.976,4.786-11.943,11.759-11.943S141.538,39.249,141.538,46.225z M124.493,46.225c0,3.01,2.004,6.243,5.286,6.243
				s5.286-3.233,5.286-6.243c0-3.102-2.004-6.289-5.286-6.289S124.493,43.123,124.493,46.225z"/>
			<path fill="#0DBCD4" d="M155.573,40.301c-0.913-0.869-2.098-1.555-3.373-1.555c-1.05,0-2.096,0.825-2.096,1.92
				c0,1.639,2.322,2.093,4.604,3.096c2.323,1.002,4.602,2.551,4.602,6.428c0,4.964-4.01,7.926-8.703,7.926
				c-3.01,0-5.926-1.362-7.887-3.733l2.918-3.784c1.232,1.367,2.872,2.595,4.739,2.595c1.415,0,2.554-0.954,2.554-2.413
				c0-1.959-2.234-2.416-4.469-3.371c-2.232-0.959-4.467-2.277-4.467-5.882c0-4.188,2.919-7.245,7.111-7.245
				c2.369,0,5.379,0.732,7.2,2.324L155.573,40.301z"/>
			<path fill="#0DBCD4" d="M169.608,25.624c0,2.096-1.686,3.782-3.781,3.782c-2.097,0-3.784-1.687-3.784-3.782
				c0-2.05,1.688-3.784,3.784-3.784C167.922,21.84,169.608,23.574,169.608,25.624z M169.017,57.391h-6.38V35.014h6.38V57.391z"/>
			<path fill="#0DBCD4" d="M180.543,57.391h-6.381V40.389h-2.185v-5.375h2.185v-7.569h6.381v7.569h3.92v5.375h-3.92V57.391z"/>
			<path fill="#0DBCD4" d="M209.139,46.225c0,6.926-4.739,11.891-11.76,11.891c-7.017,0-11.756-4.965-11.756-11.891
				c0-6.976,4.785-11.943,11.756-11.943C204.354,34.281,209.139,39.249,209.139,46.225z M192.096,46.225
				c0,3.01,2.005,6.243,5.283,6.243c3.283,0,5.289-3.233,5.289-6.243c0-3.102-2.006-6.289-5.289-6.289
				C194.101,39.936,192.096,43.123,192.096,46.225z"/>
			<path fill="#0DBCD4" d="M218.069,37.338h0.094c1.275-1.961,3.188-3.057,5.561-3.057c0.912,0,1.822,0.228,2.642,0.545
				l-0.773,5.927c-0.775-0.548-1.688-0.818-2.645-0.818c-4.419,0-4.878,3.916-4.878,7.382v10.073h-6.378V35.014h6.378V37.338z"/>
			<path fill="#0DBCD4" d="M227.592,35.014h7.249l5.331,12.715l5.742-12.715h7.11l-16.271,34.314h-7.019l7.384-15.357
				L227.592,35.014z"/>
		</g>
	</g>
</g>
</svg>
