<?xml version="1.0" encoding="utf-8"?>
<!-- Generator: Adobe Illustrator 16.0.0, SVG Export Plug-In . SVG Version: 6.00 Build 0)  -->
<!DOCTYPE svg PUBLIC "-//W3C//DTD SVG 1.1//EN" "http://www.w3.org/Graphics/SVG/1.1/DTD/svg11.dtd">
<svg version="1.1" id="Layer_1" xmlns="http://www.w3.org/2000/svg" xmlns:xlink="http://www.w3.org/1999/xlink" x="0px" y="0px"
	 width="114px" height="130px" viewBox="0 0 114 130" enable-background="new 0 0 114 130" xml:space="preserve">
<g id="GITHUB_ON" opacity="0.8">
	<path id="GITHUB_ON_1_" fill-rule="evenodd" clip-rule="evenodd" fill="#1BBBD2" d="M57.071,0
		C31.915,0,11.518,20.333,11.518,45.419c0,20.063,13.052,37.087,31.155,43.094c2.277,0.416,3.109-0.986,3.109-2.189
		c0-1.078-0.041-3.935-0.06-7.725c-12.675,2.744-15.346-6.089-15.346-6.089c-2.072-5.245-5.061-6.642-5.061-6.642
		c-4.134-2.819,0.313-2.762,0.313-2.762c4.574,0.322,6.977,4.681,6.977,4.681c4.066,6.94,10.664,4.935,13.26,3.773
		c0.415-2.935,1.591-4.937,2.892-6.072c-10.115-1.146-20.751-5.042-20.751-22.446c0-4.958,1.773-9.012,4.688-12.187
		c-0.467-1.148-2.031-5.767,0.448-12.02c0,0,3.824-1.221,12.527,4.657c3.633-1.007,7.531-1.513,11.405-1.53
		c3.869,0.018,7.765,0.523,11.406,1.53c8.696-5.877,12.514-4.657,12.514-4.657c2.486,6.253,0.923,10.872,0.455,12.02
		c2.918,3.175,4.682,7.229,4.682,12.187c0,17.448-10.651,21.287-20.8,22.411c1.634,1.402,3.092,4.175,3.092,8.411
		c0,6.072-0.055,10.969-0.055,12.459c0,1.214,0.82,2.628,3.132,2.185c18.085-6.019,31.13-23.029,31.13-43.089
		C102.631,20.333,82.23,0,57.071,0z"/>
	<path fill-rule="evenodd" clip-rule="evenodd" fill="#FFFFFF" d="M71.501,88.508c-2.312,0.443-3.132-0.971-3.132-2.185
		c0-1.49,0.055-6.387,0.055-12.459c0-4.236-1.458-7.009-3.092-8.411c10.148-1.125,20.8-4.963,20.8-22.411
		c0-4.958-1.764-9.012-4.682-12.187c0.468-1.148,2.031-5.767-0.455-12.02c0,0-3.817-1.221-12.514,4.657
		c-3.641-1.007-7.537-1.513-11.406-1.53c-3.875,0.018-7.772,0.523-11.405,1.53c-8.704-5.877-12.527-4.657-12.527-4.657
		c-2.479,6.253-0.915,10.872-0.448,12.02c-2.916,3.175-4.688,7.229-4.688,12.187c0,17.404,10.636,21.3,20.751,22.446
		c-1.301,1.136-2.477,3.138-2.892,6.072c-2.596,1.161-9.194,3.167-13.26-3.773c0,0-2.402-4.359-6.977-4.681
		c0,0-4.447-0.057-0.313,2.762c0,0,2.988,1.396,5.061,6.642c0,0,2.671,8.833,15.346,6.089c0.019,3.79,0.06,6.646,0.06,7.725
		c0,1.203-0.832,2.605-3.109,2.189C42.673,88.513,55.469,93.783,71.501,88.508z"/>
	<g>
		<path fill="#333333" d="M21.959,112.418h-9.583c-0.246,0-0.445,0.202-0.445,0.449v4.667c0,0.248,0.199,0.447,0.445,0.447h3.739
			v5.802c0,0-0.839,0.284-3.159,0.284c-2.74,0-6.56-0.995-6.56-9.379c0-8.382,3.981-9.485,7.718-9.485
			c3.234,0,4.63,0.567,5.518,0.843c0.276,0.085,0.532-0.193,0.532-0.44l1.071-4.511c0-0.114-0.039-0.254-0.172-0.349
			c-0.36-0.255-2.557-1.482-8.107-1.482C6.561,99.264,0,101.977,0,115.016C0,128.056,7.512,130,13.843,130
			c5.235,0,8.417-2.231,8.417-2.231c0.132-0.073,0.145-0.257,0.145-0.34v-14.562C22.404,112.62,22.205,112.418,21.959,112.418z"/>
		<path fill="#333333" d="M71.327,100.827c0-0.248-0.197-0.45-0.448-0.45h-5.391c-0.247,0-0.443,0.202-0.443,0.45
			c0,0.002,0,10.392,0,10.392h-8.412v-10.392c0-0.248-0.193-0.45-0.444-0.45H50.8c-0.248,0-0.448,0.202-0.448,0.45v28.139
			c0,0.248,0.2,0.45,0.448,0.45h5.389c0.25,0,0.444-0.202,0.444-0.45V116.93h8.412l-0.015,12.036c0,0.248,0.197,0.45,0.443,0.45
			h5.405c0.251,0,0.448-0.202,0.448-0.45V100.827z"/>
		<g>
			<g>
				<path fill="#333333" d="M32.135,104.521c0-1.938-1.557-3.502-3.479-3.502c-1.917,0-3.475,1.564-3.475,3.502
					c0,1.933,1.559,3.503,3.475,3.503C30.578,108.023,32.135,106.453,32.135,104.521z"/>
				<path fill="#333333" d="M31.752,123.029c0-0.721,0-12.987,0-12.987c0-0.248-0.203-0.45-0.446-0.45h-5.379
					c-0.246,0-0.467,0.254-0.467,0.501c0,0,0,15.631,0,18.609c0,0.547,0.342,0.708,0.781,0.708c0,0,2.296,0,4.851,0
					c0.528,0,0.66-0.258,0.66-0.717C31.752,127.695,31.752,123.788,31.752,123.029z"/>
			</g>
		</g>
		<path fill="#333333" d="M91.824,109.635h-5.35c-0.243,0-0.447,0.201-0.447,0.449v13.798c0,0-1.36,0.993-3.289,0.993
			c-1.93,0-2.444-0.873-2.444-2.758s0-12.033,0-12.033c0-0.248-0.199-0.449-0.443-0.449h-5.432c-0.243,0-0.445,0.201-0.445,0.449
			c0,0,0,7.35,0,12.943c0,5.596,3.126,6.967,7.43,6.967c3.531,0,6.381-1.945,6.381-1.945s0.136,1.024,0.196,1.146
			c0.059,0.122,0.219,0.243,0.389,0.243l3.457-0.015c0.248,0,0.453-0.202,0.453-0.449l-0.002-18.891
			C92.277,109.836,92.074,109.635,91.824,109.635z"/>
		<path fill="#333333" d="M106.454,109.003c-3.038,0-5.104,1.353-5.104,1.353v-9.528c0-0.248-0.199-0.45-0.448-0.45h-5.409
			c-0.243,0-0.444,0.202-0.444,0.45v28.139c0,0.248,0.201,0.45,0.448,0.45h3.749c0.173,0,0.294-0.086,0.394-0.238
			c0.092-0.153,0.227-1.298,0.227-1.298s2.214,2.09,6.403,2.09c4.914,0,7.731-2.485,7.731-11.16S109.501,109.003,106.454,109.003z
			 M104.347,124.858c-1.858-0.059-3.118-0.897-3.118-0.897v-8.91c0,0,1.244-0.76,2.764-0.896c1.931-0.171,3.788,0.408,3.788,4.991
			C107.78,123.982,106.941,124.936,104.347,124.858z"/>
		<path fill="#333333" d="M47.252,109.59h-4.045c0,0-0.007-5.326-0.007-5.33c0-0.201-0.104-0.303-0.335-0.303h-5.513
			c-0.216,0-0.33,0.096-0.33,0.301v5.507c0,0-2.766,0.666-2.954,0.719c-0.185,0.056-0.321,0.225-0.321,0.428v3.462
			c0,0.248,0.201,0.449,0.446,0.449h2.829c0,0,0,3.619,0,8.325c0,6.184,4.349,6.793,7.287,6.793c1.34,0,2.944-0.431,3.213-0.53
			c0.158-0.058,0.249-0.223,0.249-0.401l0.004-3.808c0-0.246-0.209-0.45-0.448-0.45c-0.234,0-0.838,0.098-1.458,0.098
			c-1.985,0-2.661-0.92-2.661-2.113c0-1.191,0-7.913,0-7.913h4.045c0.249,0,0.445-0.201,0.445-0.449v-4.334
			C47.697,109.791,47.5,109.59,47.252,109.59z"/>
	</g>
</g>
</svg>
