<?xml version="1.0" encoding="utf-8"?>
<!-- Generator: Adobe Illustrator 16.0.0, SVG Export Plug-In . SVG Version: 6.00 Build 0)  -->
<!DOCTYPE svg PUBLIC "-//W3C//DTD SVG 1.1//EN" "http://www.w3.org/Graphics/SVG/1.1/DTD/svg11.dtd">
<svg version="1.1" id="Layer_1" xmlns="http://www.w3.org/2000/svg" xmlns:xlink="http://www.w3.org/1999/xlink" x="0px" y="0px"
	 width="155px" height="178.57px" viewBox="0 0 155 178.57" enable-background="new 0 0 155 178.57" xml:space="preserve">
<g>
	<g id="Logo_V.3._14_">
		<g>
			<path fill="#0DBCD4" d="M77.931,0.25c-0.238-0.137-0.628-0.137-0.866,0L0.433,44.386C0.195,44.523,0,44.861,0,45.136v88.299
				c0,0.275,0.195,0.612,0.433,0.75l76.632,44.135c0.238,0.138,0.628,0.138,0.866,0l76.636-44.135
				c0.238-0.138,0.434-0.475,0.434-0.75V45.136c0-0.275-0.195-0.612-0.434-0.75L77.931,0.25z M126.311,116.753
				c0,0.275-0.195,0.611-0.435,0.748l-23.539,13.449c-0.239,0.137-0.435,0.023-0.435-0.252l0.004-55.107
				c0-0.275-0.195-0.388-0.434-0.25L78.034,88.835c-0.239,0.137-0.63,0.14-0.871,0.006l-23.63-13.134
				c-0.24-0.134-0.437-0.018-0.437,0.257v54.734c0,0.275-0.195,0.389-0.434,0.252l-23.528-13.449
				c-0.239-0.137-0.434-0.473-0.434-0.748V61.531c0-0.275,0.195-0.612,0.433-0.75l23.53-13.57c0.238-0.138,0.628-0.138,0.866,0
				l23.54,13.571c0.238,0.137,0.628,0.137,0.866,0l23.533-13.57c0.238-0.138,0.629-0.138,0.867,0l23.541,13.571
				c0.238,0.137,0.434,0.475,0.434,0.75V116.753z"/>
		</g>
	</g>
</g>
</svg>
