<?xml version="1.0" encoding="utf-8"?>
<!-- Generator: Adobe Illustrator 16.0.0, SVG Export Plug-In . SVG Version: 6.00 Build 0)  -->
<!DOCTYPE svg PUBLIC "-//W3C//DTD SVG 1.1//EN" "http://www.w3.org/Graphics/SVG/1.1/DTD/svg11.dtd">
<svg version="1.1" id="Layer_1" xmlns="http://www.w3.org/2000/svg" xmlns:xlink="http://www.w3.org/1999/xlink" x="0px" y="0px"
	 width="54px" height="50px" viewBox="0 0 54 50" enable-background="new 0 0 54 50" xml:space="preserve">
<g id="Logo_1_">
	<path fill="#F4F4F4" d="M28.003,43.996L10.708,44v-0.004C4.793,43.996,0,39.189,0,33.258c0-3.964,2.163-7.381,5.347-9.243
		c-0.242-0.731-0.405-1.503-0.405-2.32c0-4.104,3.319-7.435,7.414-7.435c0.782,0,1.521,0.156,2.229,0.381
		C16.938,9.55,22.042,6,28.003,6V43.996z"/>
	<rect x="29.27" y="6.036" fill="#F4F4F4" width="5.207" height="5.222"/>
	<rect x="35.776" y="6.036" fill="#F4F4F4" width="5.208" height="5.222"/>
	<rect x="29.27" y="12.562" fill="#F4F4F4" width="5.207" height="5.222"/>
	<rect x="35.776" y="12.562" fill="#F4F4F4" width="5.208" height="5.222"/>
	<rect x="42.286" y="12.562" fill="#F4F4F4" width="5.204" height="5.222"/>
	<rect x="29.27" y="19.089" fill="#F4F4F4" width="5.207" height="5.222"/>
	<rect x="35.776" y="19.089" fill="#F4F4F4" width="5.208" height="5.222"/>
	<rect x="42.286" y="19.089" fill="#F4F4F4" width="5.204" height="5.222"/>
	<rect x="29.27" y="25.615" fill="#F4F4F4" width="5.207" height="5.223"/>
	<rect x="35.776" y="25.615" fill="#F4F4F4" width="5.208" height="5.223"/>
	<rect x="42.286" y="25.615" fill="#F4F4F4" width="5.204" height="5.223"/>
	<rect x="48.794" y="25.615" fill="#F4F4F4" width="5.206" height="5.223"/>
	<rect x="29.27" y="32.144" fill="#F4F4F4" width="5.207" height="5.222"/>
	<rect x="35.776" y="32.144" fill="#F4F4F4" width="5.208" height="5.222"/>
	<rect x="42.286" y="32.144" fill="#F4F4F4" width="5.204" height="5.222"/>
	<rect x="48.794" y="32.144" fill="#F4F4F4" width="5.206" height="5.222"/>
	<rect x="29.27" y="38.669" fill="#F4F4F4" width="5.207" height="5.223"/>
	<rect x="35.776" y="38.669" fill="#F4F4F4" width="5.208" height="5.223"/>
	<rect x="42.286" y="38.669" fill="#F4F4F4" width="5.204" height="5.223"/>
</g>
</svg>
