<?xml version="1.0" encoding="utf-8"?>
<!-- Generator: Adobe Illustrator 16.0.0, SVG Export Plug-In . SVG Version: 6.00 Build 0)  -->
<!DOCTYPE svg PUBLIC "-//W3C//DTD SVG 1.1//EN" "http://www.w3.org/Graphics/SVG/1.1/DTD/svg11.dtd">
<svg version="1.1" xmlns="http://www.w3.org/2000/svg" xmlns:xlink="http://www.w3.org/1999/xlink" x="0px" y="0px" width="35px"
	 height="31px" viewBox="0 0 35 31" enable-background="new 0 0 35 31" xml:space="preserve">
<g id="Layer_1" display="none">
	<path id="ICON_1_" display="inline" fill="#272626" d="M30.55,10.154c0.084-0.49,0.126-0.981,0.126-1.461
		C30.676,3.9,26.771,0,21.972,0c-3.71,0.007-5.349,1.956-6.02,3.213c-0.97-0.749-2.532-1.594-4.641-1.594
		c-0.322,0-0.642,0.021-1.015,0.068C6.696,2.405,4.083,5.591,4.083,9.263c0,0.338,0.028,0.681,0.084,1.022
		C1.632,11.516,0,14.117,0,16.941c0,4.08,3.318,7.398,7.397,7.398h20.207c4.078,0,7.396-3.318,7.396-7.398
		C35,13.974,33.257,11.321,30.55,10.154z M27.604,22.654H7.397c-3.15,0-5.713-2.562-5.713-5.713c0-2.389,1.504-4.544,3.743-5.364
		l0.732-0.267l-0.209-0.75c-0.123-0.439-0.182-0.864-0.182-1.297c0-2.824,2.065-5.367,4.794-5.913
		c0.254-0.031,0.507-0.046,0.75-0.046c2.747,0,4.304,1.877,4.319,1.896l1.145,1.406l0.339-1.785
		c0.023-0.128,0.635-3.128,4.858-3.137c3.87,0,7.019,3.145,7.019,7.009c0,0.589-0.078,1.19-0.232,1.786l-0.197,0.774l0.761,0.24
		c2.388,0.752,3.993,2.941,3.993,5.449C33.315,20.092,30.754,22.654,27.604,22.654z"/>
</g>
<g id="Layer_2" display="none">
	<path display="inline" fill="#272626" d="M17.43,27.58c-0.113,0-0.228-0.023-0.338-0.072c-0.479-0.213-11.749-5.321-11.749-13.961
		V-1.875h24.313v15.422c0,8.64-11.27,13.748-11.748,13.961c-0.133,0.059-0.271,0.08-0.408,0.068
		C17.477,27.578,17.454,27.58,17.43,27.58z M7.01-0.208v13.755c0,6.887,8.822,11.5,10.489,12.31
		c1.667-0.812,10.491-5.435,10.491-12.31V-0.208H7.01z M23.307,9.406c0.32-0.329,0.314-0.857-0.014-1.179
		c-0.33-0.322-0.855-0.316-1.178,0.012l-5.824,5.95l-3.296-3.06c-0.337-0.313-0.863-0.294-1.178,0.044
		c-0.313,0.337-0.293,0.864,0.044,1.178l4.485,4.164L23.307,9.406z"/>
</g>
<g id="Layer_3" display="none">
	<path id="ICON_5_" display="inline" fill="#272626" d="M29.617,20.195c-0.656,0-1.28,0.131-1.852,0.367L20.611,8.638
		c1.08-0.896,1.77-2.248,1.77-3.758C22.381,2.189,20.191,0,17.5,0s-4.88,2.189-4.88,4.88c0,1.51,0.688,2.861,1.769,3.757
		L7.234,20.562c-0.571-0.236-1.196-0.367-1.853-0.367c-2.69,0-4.88,2.189-4.88,4.881s2.189,4.881,4.88,4.881
		c2.441,0,4.464-1.805,4.82-4.146h14.596c0.356,2.342,2.378,4.146,4.819,4.146c2.691,0,4.881-2.189,4.881-4.881
		S32.309,20.195,29.617,20.195z M17.5,1.469c1.881,0,3.412,1.53,3.412,3.412S19.381,8.292,17.5,8.292s-3.411-1.531-3.411-3.412
		S15.619,1.469,17.5,1.469z M15.648,9.394c0.571,0.235,1.196,0.367,1.852,0.367s1.279-0.132,1.852-0.367l7.154,11.924
		c-0.9,0.748-1.523,1.814-1.708,3.023H10.202c-0.185-1.209-0.808-2.275-1.709-3.023L15.648,9.394z M5.382,28.488
		c-1.881,0-3.411-1.531-3.411-3.412c0-1.883,1.53-3.412,3.411-3.412c1.882,0,3.413,1.529,3.413,3.412
		C8.795,26.957,7.264,28.488,5.382,28.488z M29.617,28.488c-1.882,0-3.412-1.531-3.412-3.412c0-1.883,1.53-3.412,3.412-3.412
		c1.881,0,3.412,1.529,3.412,3.412C33.029,26.957,31.498,28.488,29.617,28.488z"/>
</g>
<g id="Layer_4" display="none">
	<path display="inline" fill="#272626" d="M33.629,27.898h-1.032V0H21.312v7.99h-9.455v8.823H2.403v11.086H1.372
		c-0.505,0-0.915,0.41-0.915,0.916c0,0.504,0.41,0.914,0.915,0.914h32.257c0.505,0,0.915-0.41,0.915-0.914
		C34.544,28.309,34.134,27.898,33.629,27.898z M23.142,1.83h7.625v26.068h-7.625V7.99V1.83z M13.688,9.819h7.625v18.079h-7.625
		V16.812V9.819z M4.233,18.643h7.624v9.256H4.233V18.643z"/>
</g>
<g id="Layer_5" display="none">
	<path display="inline" fill="#272626" d="M6.128,0v27.293l22.744-13.646L6.128,0z M25.178,13.646L8.028,23.938V3.356L25.178,13.646
		z"/>
</g>
<g id="Layer_6" display="none">
	<path display="inline" fill="#272626" d="M33.333,24.384V0H1.667v24.384h14.695v4.348h-5.404c-0.629,0-1.138,0.509-1.138,1.136
		c0,0.626,0.509,1.133,1.138,1.133h13.084c0.628,0,1.138-0.507,1.138-1.133c0-0.627-0.51-1.136-1.138-1.136h-5.404v-4.348H33.333z
		 M3.942,2.268h27.115v19.848H3.942V2.268z"/>
</g>
<g id="Layer_7" display="none">
	<path id="ICON_3_" display="inline" fill="#272626" d="M2.93,7.789l9.943-4.619v2.195L5.354,8.659V8.7l7.519,3.293v2.196
		L2.93,9.571V7.789z M14.403,15.019L18.836,0h2.092l-4.433,15.019H14.403z M32.07,9.633l-9.943,4.557v-2.196L29.812,8.7V8.659
		l-7.686-3.294V3.17l9.943,4.557V9.633z"/>
</g>
<g id="Layer_8" display="none">
	<path id="ICON_10_" display="inline" fill="#272626" d="M25.646,19.996c-0.465,0-0.842,0.377-0.842,0.842v7.578H6.071V7.788h6.765
		l-0.21-6.104h12.179v1.224c0,0.465,0.377,0.842,0.842,0.842s0.842-0.377,0.842-0.842V0H11.422L4.388,6.581V30.1h22.101v-9.262
		C26.488,20.373,26.111,19.996,25.646,19.996z M7.362,6.104l3.614-3.382l0.116,3.382H7.362z M11.122,20.08v6.617l5.675-1.082
		L30.612,11.8l-5.81-6.074L11.122,20.08z M15.973,24.059l-3.166,0.604v-3.908l7.946-8.336l3.661,3.2L15.973,24.059z M28.258,11.774
		l-2.65,2.65l-3.691-3.227l2.89-3.032L28.258,11.774z"/>
</g>
<g id="Layer_9" display="none">
	<path id="ICON" display="inline" fill="#272626" d="M5.792,0v30.023h23.416V0H5.792z M27.484,28.299H7.517V1.724h19.968V28.299z
		 M8.736,7.972c0-0.476,0.386-0.862,0.862-0.862h15.514c0.477,0,0.862,0.386,0.862,0.862s-0.386,0.862-0.862,0.862H9.599
		C9.122,8.834,8.736,8.448,8.736,7.972z M8.736,11.42c0-0.476,0.386-0.862,0.862-0.862h15.514c0.477,0,0.862,0.386,0.862,0.862
		s-0.386,0.862-0.862,0.862H9.599C9.122,12.282,8.736,11.896,8.736,11.42z M8.736,14.868c0-0.476,0.386-0.862,0.862-0.862h15.514
		c0.477,0,0.862,0.386,0.862,0.862s-0.386,0.862-0.862,0.862H9.599C9.122,15.729,8.736,15.344,8.736,14.868z M8.736,18.315
		c0-0.476,0.386-0.862,0.862-0.862h15.514c0.477,0,0.862,0.387,0.862,0.862s-0.386,0.862-0.862,0.862H9.599
		C9.122,19.178,8.736,18.791,8.736,18.315z M8.736,21.763c0-0.476,0.386-0.862,0.862-0.862h15.514c0.477,0,0.862,0.387,0.862,0.862
		s-0.386,0.862-0.862,0.862H9.599C9.122,22.625,8.736,22.238,8.736,21.763z"/>
</g>
<g id="Layer_10">
	<path id="ICON_13_" fill="#272626" d="M15.968,19.576L5.781,9.508l5.859-6.513l4.283,4.178L22.474,0l6.745,6.097L15.968,19.576z
		 M8.195,9.437l7.756,7.667L26.695,6.172l-4.104-3.711l-6.595,7.223l-4.272-4.168L8.195,9.437z"/>
</g>
</svg>
